<?xml version="1.0" encoding="utf-8"?>
<!-- Generator: Adobe Illustrator 15.0.2, SVG Export Plug-In . SVG Version: 6.00 Build 0)  -->
<!DOCTYPE svg PUBLIC "-//W3C//DTD SVG 1.1//EN" "http://www.w3.org/Graphics/SVG/1.1/DTD/svg11.dtd">
<svg version="1.1" id="Layer_1" xmlns="http://www.w3.org/2000/svg" xmlns:xlink="http://www.w3.org/1999/xlink" x="0px" y="0px"
	 width="324px" height="106px" viewBox="0 0 324 106" enable-background="new 0 0 324 106" xml:space="preserve">
<g>
	<path fill="none" stroke="#D2272D" stroke-width="0.5" stroke-miterlimit="10" d="M75.646,74.366c0-1.583,4.79-2.868,10.701-2.868
		c5.91,0,10.701,1.285,10.701,2.868"/>
	
		<ellipse fill="none" stroke="#D2272D" stroke-width="0.5" stroke-miterlimit="10" cx="86.347" cy="80.108" rx="10.701" ry="2.868"/>
	
		<ellipse fill="none" stroke="#D2272D" stroke-width="0.5" stroke-miterlimit="10" cx="86.347" cy="85.743" rx="10.701" ry="2.868"/>
	<line fill="none" stroke="#D2272D" stroke-width="0.5" stroke-miterlimit="10" x1="75.646" y1="74.366" x2="75.646" y2="91.478"/>
	<line fill="none" stroke="#D2272D" stroke-width="0.5" stroke-miterlimit="10" x1="97.048" y1="74.418" x2="97.048" y2="91.478"/>
	<path fill="none" stroke="#D2272D" stroke-width="0.5" stroke-miterlimit="10" d="M97.048,91.478c0,1.583-4.791,2.868-10.701,2.868
		c-5.911,0-10.701-1.285-10.701-2.868"/>
	<path fill="none" stroke="#D2272D" stroke-width="0.5" stroke-miterlimit="10" d="M86.347,77.286
		c-5.911,0-10.701-1.284-10.701-2.868"/>
	<path fill="none" stroke="#D2272D" stroke-width="0.5" stroke-miterlimit="10" d="M97.048,74.418c0,1.584-4.791,2.868-10.701,2.868
		"/>
	<path fill="none" stroke="#D2272D" stroke-width="0.5" stroke-miterlimit="10" d="M86.347,88.611
		c5.911,0,10.701,1.285,10.701,2.868"/>
	<path fill="none" stroke="#D2272D" stroke-width="0.5" stroke-miterlimit="10" d="M75.646,91.479c0-1.583,4.79-2.868,10.701-2.868"
		/>
</g>
<g>
	<path fill="none" stroke="#D2272D" stroke-width="0.5" stroke-miterlimit="10" d="M213.055,75.651
		c1.422,2.136,2.297,4.46,2.674,8.16c0.428,4.189,0.576,7.753,3.559,9.068c-1.775,0.352-3.023,0.879-2.97,1.317
		c0.067,0.547,1.661,0.123,4.151-0.182c0.373-0.044,0.992-0.044,1.336-0.104c-0.65,1.055-0.666,2.504-0.301,2.857
		c0.584,0.564,1.904-1.055,3.646-2.857c0.877-0.908,2.113-1.232,2.492-2.013c0.733-0.075,1.719-0.131,3.037-0.14
		c3.199-0.02,4.342-0.978,4.342-1.868c0.002-0.789-0.938-1.595-3.038-1.613c-1.444-0.015-2.042-0.411-2.04-0.621
		c0.001-0.327,1.154-1.278,4.674-1.278c2.47,0,3.758,0.678,4.021,1.135c0.072,0.125,0.051,0.195,0.017,0.255
		c-0.147,0.255-0.89,0.686-2.737,0.686c-0.234,0-0.423,0.189-0.423,0.423s0.19,0.422,0.423,0.422c1.823,0,3.055-0.393,3.467-1.107
		c0.2-0.346,0.194-0.734-0.016-1.1c-0.554-0.959-2.375-1.556-4.753-1.556c-3.806,0-5.515,1.064-5.519,2.118
		c-0.002,0.697,0.752,1.45,2.877,1.471c1.539,0.012,2.203,0.514,2.203,0.767c0,0.315-0.883,1.009-3.504,1.026
		c-1.023,0.006-1.916,0.041-2.678,0.103c0.82-1.89,0.13-4.466-0.447-5.802c-0.916-2.109-3.519-4.22-5.63-7.878
		c-0.565-0.98-1.319-1.991-2.247-2.91c1.368-1.072,2.062-2.432,1.562-3.168c-0.454-0.667-1.745-0.61-3.099,0.062
		c-0.31-1.094-0.894-1.833-1.557-1.826c-0.702,0.006-1.299,0.842-1.57,2.046c-2.018-0.625-4.425-0.74-4.625-0.113
		C210.121,72.245,211.829,73.808,213.055,75.651z M215.344,73.607c0-0.565,0.459-1.024,1.024-1.024s1.024,0.459,1.024,1.024
		c0,0.566-0.459,1.025-1.024,1.025S215.344,74.173,215.344,73.607z"/>
	
		<ellipse transform="matrix(0.9392 0.3435 -0.3435 0.9392 41.919 -69.5172)" fill="none" stroke="#D2272D" stroke-width="0.5" stroke-miterlimit="10" cx="217.192" cy="83.57" rx="0.687" ry="2.001"/>
</g>
<g>
	<path fill="none" stroke="#D2272D" stroke-width="0.5" stroke-miterlimit="10" d="M273.42,66.741
		c1.414,1.214,4.683,3.958,5.459,4.609c-0.254,0.466-0.312,1.018-0.278,1.545c0,0.25,0.049,0.532-0.099,0.754
		c-0.381,0.824-1.09,1.447-1.373,2.322c-0.1,0.243-0.236,0.507-0.157,0.779c0.093,0.257,0.263,0.462,0.389,0.705
		c0.117,0.225,0.347,0.413,0.595,0.474c0.312,0.022,0.645,0.121,0.938-0.036c0.146-0.039,0.257-0.149,0.354-0.256
		c0.195-0.207,0.22-0.536,0.498-0.668c0.578-0.315,1.155-0.654,1.702-1.022c0.515-0.189,0.997-0.438,1.411-0.802
		c0.663,0.474,0.93,1.266,1.276,1.969c0.5,1.011,1.131,1.956,1.52,3.016c0.144,0.41,0.358,0.814,0.39,1.252
		c0.028,0.333,0.002,0.657,0.074,0.985c0.066,0.379,0.25,0.746,0.278,1.131c0,0.104-0.053,0.196-0.085,0.293
		c-0.307,0.793-0.521,1.616-0.803,2.42c-0.125,0.426-0.313,0.806-0.475,1.215c-0.285,0.74-0.769,1.379-1.082,2.104
		c-0.297,0.679-0.654,1.334-1.082,1.933c-0.336,0.395-0.627,0.814-0.912,1.242c-0.258,0.412-0.787,0.547-1.035,0.973
		c-0.004-0.004-0.019-0.008-0.024-0.012c-0.194,0.238-0.396,0.461-0.546,0.729c-0.018,0.175,0.199,0.233,0.329,0.292
		c0.599,0.174,1.243,0.211,1.858,0.122c0.035-0.083,0.055-0.158,0.11-0.281c0.047-0.17-0.047-0.362-0.096-0.522
		c0.138-0.149,0.282-0.304,0.485-0.364c0.979-1.767,1.752-2.433,2.213-2.992c0.222-0.261,0.441-0.519,0.608-0.813
		c0.114-0.197,0.325-0.34,0.39-0.561c0.16-0.436,0.438-0.814,0.682-1.204c0.471-0.707,0.958-1.409,1.482-2.079
		c0.236,1.145,0.489,2.312,0.451,3.49c0.092,0.553,0.045,1.184,0.438,1.629c0.164,0.223,0.433,0.337,0.607,0.547
		c0.293,0.314,0.582,0.615,0.863,0.936c0.219,0.248,0.398,0.537,0.682,0.72c0.239,0.155,0.502,0.332,0.791,0.364
		c0.186-0.012,0.361-0.123,0.547-0.135c0.451-0.043,0.858,0.144,1.302,0.195c0.001,0.003-0.002,0.01,0,0.012
		c0.008-0.002,0.026-0.01,0.036-0.012c0.018,0.002,0.031,0.012,0.049,0.012c-0.003-0.005-0.01-0.007-0.012-0.012
		c0.322-0.081,0.637-0.158,0.947-0.279c-0.041-0.226-0.223-0.382-0.377-0.535c-0.313-0.246-0.556-0.547-0.826-0.84
		c-0.154-0.181-0.387-0.174-0.596-0.121c-0.086,0.082-0.215,0.141-0.244,0.254c-0.132,0.02-0.285,0.099-0.389-0.022
		c-0.539-0.422-0.977-0.946-1.507-1.374c-0.218-0.162-0.373-0.393-0.462-0.646c-0.076-0.295,0.033-0.586,0.023-0.887
		c0.024-0.679,0.256-1.318,0.377-1.982c0.082-0.424,0.139-0.862,0.268-1.276c0.129-0.317,0.258-0.636,0.365-0.961
		c0.188-0.007,0.371-0.017,0.559-0.013c1.464,0.064,2.945,0.25,4.402,0.025c0.86-0.111,1.701-0.353,2.529-0.597
		c0.411-0.121,0.827-0.199,1.254-0.231c0.135-0.012,0.18,0.178,0.254,0.256c0.365,0.572,0.352,1.269,0.426,1.922
		c0.064,0.632,0.27,1.254,0.257,1.896c0.021,0.531-0.106,1.062-0.22,1.581c-0.183,0.597-0.528,1.126-0.961,1.568
		c-0.278,0.321-0.502,0.663-0.791,0.973c-0.366,0.394-0.746,0.791-1.117,1.181c-0.297,0.313-0.723,0.479-0.973,0.838
		c-0.166,0.271-0.563,0.582-0.597,1.045c0.761,0.173,1.562,0.229,2.323,0.05c0.013-0.091-0.083-0.257-0.122-0.39
		c0.014-0.174,0.028-0.401,0.207-0.498c0.317-0.311,0.789-0.125,1.168-0.061c0.198-0.32,0.435-0.62,0.631-0.947
		c0.09-0.18,0.146-0.382,0.231-0.561c0.189-0.417,0.498-0.764,0.791-1.105c0.523-0.604,1.02-1.238,1.604-1.789
		c0.154-0.156,0.308-0.315,0.39-0.521c0.117-0.939-0.084-1.879-0.037-2.822c0.047-0.464,0.093-0.945,0.291-1.374
		c0.373,0.265,0.726,0.544,1.107,0.79c0.729,0.475,1.504,0.928,2.043,1.631c0.493,0.606,0.76,1.35,0.924,2.104
		c0.079,0.624,0.217,1.253,0.256,1.885c0.025,0.479,0.239,0.932,0.512,1.325c0.256,0.341,0.468,0.866,0.681,1.301
		c0.253,0.332,0.479,0.751,0.888,0.912c0.139-0.239,0.228-0.506,0.291-0.778c0.068-0.393,0.297-0.732,0.389-1.119
		c0.041-0.146-0.223-0.168-0.377-0.242c-0.104-0.035-0.43-0.188-0.534-0.45c-0.015-0.546-0.085-1.075-0.121-1.617
		c-0.086-0.403-0.25-0.797-0.329-1.205c0.234,0.354,0.573,0.608,0.912,0.853c0.365,0.228,0.577,0.613,0.888,0.899
		c0.331,0.321,0.72,0.599,0.997,0.972c0.321,0.394,0.773,0.631,1.191,0.901c0.156,0.121,0.287,0.286,0.486,0.34
		c0.141,0.107,0.238-0.051,0.316-0.134c0.211-0.225,0.378-0.537,0.292-0.852c-0.019-0.467-0.185-0.896-0.292-1.35
		c-0.104-0.931-0.67-1.722-1.191-2.468c-0.339-0.421-0.515-0.937-0.754-1.412c-0.15-0.374-0.443-0.688-0.535-1.082
		c-0.064-0.444-0.373-0.791-0.498-1.216c-0.144-0.514-0.422-0.971-0.572-1.482c-0.071-0.287-0.188-0.566-0.256-0.853
		c-0.11-0.392-0.146-0.812-0.207-1.216c-0.103-0.56-0.308-1.089-0.4-1.653c-0.07-0.4-0.165-0.788-0.34-1.156
		c-0.168-0.336-0.292-0.705-0.535-0.997c-0.311-0.418-0.75-0.705-1.168-1.01c-0.318-0.25-0.759-0.246-1.07-0.51
		c-0.803-0.586-1.634-1.135-2.565-1.496c-1.282-0.485-2.704-0.281-4.025-0.049c-1.7,0.307-3.425,0.467-5.155,0.499
		c-0.68-0.011-1.377-0.077-1.996-0.377c-0.323-0.131-0.354-0.58-0.668-0.729c-0.303-0.168-0.59-0.359-0.899-0.523
		c-0.321-0.207-0.71-0.317-0.984-0.596c-0.504-0.468-1.106-0.804-1.557-1.325c-0.308-0.211-0.663-0.326-0.949-0.572
		c-0.61-0.497-1.304-0.937-2.079-1.119c-0.207-0.064-0.391-0.215-0.619-0.219c-0.229-0.021-0.386-0.224-0.621-0.231
		c-0.824-0.004-1.64-0.248-2.469-0.194c-0.117,0.028-0.156,0.153-0.218,0.243c-0.36-0.129-0.701-0.291-1.06-0.438
		c-0.448-0.107-0.752-0.474-1.105-0.742c-0.086,0.175-0.057,0.374-0.048,0.559c-0.009,0.19-0.06,0.386-0.099,0.572
		c-0.179,0.24-0.398,0.44-0.607,0.656c-0.499-0.34-4.423-2.999-5.982-4.013c-0.01-0.005-0.015-0.013-0.024-0.012
		C273.439,66.509,273.365,66.691,273.42,66.741z M307.035,83.778c-0.035-0.571,0.08-1.144,0.256-1.69
		c0.131,0.547,0.265,1.101,0.365,1.653c0.064,0.397,0.228,0.769,0.266,1.167C307.541,84.616,307.218,84.231,307.035,83.778z"/>
	<line fill="none" stroke="#D2272D" stroke-width="0.5" stroke-miterlimit="10" x1="274.04" y1="66.842" x2="274.462" y2="67.629"/>
	
		<line fill="none" stroke="#D2272D" stroke-width="0.5" stroke-miterlimit="10" x1="274.629" y1="67.236" x2="275.051" y2="68.191"/>
	<line fill="none" stroke="#D2272D" stroke-width="0.5" stroke-miterlimit="10" x1="275.27" y1="67.629" x2="275.691" y2="68.669"/>
	<line fill="none" stroke="#D2272D" stroke-width="0.5" stroke-miterlimit="10" x1="275.971" y1="68.19" x2="276.393" y2="69.26"/>
	
		<line fill="none" stroke="#D2272D" stroke-width="0.5" stroke-miterlimit="10" x1="276.631" y1="68.584" x2="276.991" y2="69.765"/>
	
		<line fill="none" stroke="#D2272D" stroke-width="0.5" stroke-miterlimit="10" x1="277.271" y1="68.978" x2="277.659" y2="70.326"/>
	
		<line fill="none" stroke="#D2272D" stroke-width="0.5" stroke-miterlimit="10" x1="277.974" y1="69.539" x2="278.312" y2="70.875"/>
	
		<line fill="none" stroke="#D2272D" stroke-width="0.5" stroke-miterlimit="10" x1="278.664" y1="69.932" x2="278.879" y2="70.875"/>
</g>
<g>
	<polyline fill="none" stroke="#D2272D" stroke-width="0.5" stroke-miterlimit="10" points="22.555,75.06 22.555,76.283 
		22.555,79.953 23.778,79.953 23.778,76.283 24.999,76.283 24.999,77.507 26.223,77.507 	"/>
	<line fill="none" stroke="#D2272D" stroke-width="0.5" stroke-miterlimit="10" x1="15.217" y1="67.721" x2="12.77" y2="67.721"/>
	<polyline fill="none" stroke="#D2272D" stroke-width="0.5" stroke-miterlimit="10" points="9.096,82.4 10.318,82.4 10.318,84.846 	
		"/>
	<polyline fill="none" stroke="#D2272D" stroke-width="0.5" stroke-miterlimit="10" points="12.766,89.739 12.766,87.292 
		11.542,87.292 11.542,84.846 10.318,84.846 	"/>
	<polyline fill="none" stroke="#D2272D" stroke-width="0.5" stroke-miterlimit="10" points="26.223,86.07 25,86.07 25,89.739 
		23.777,89.739 23.777,92.185 13.994,92.185 13.994,89.739 12.77,89.739 	"/>
	<line fill="none" stroke="#D2272D" stroke-width="0.5" stroke-miterlimit="10" x1="24.998" y1="93.409" x2="25.002" y2="93.409"/>
	<polyline fill="none" stroke="#D2272D" stroke-width="0.5" stroke-miterlimit="10" points="9.093,82.4 9.093,81.176 7.875,81.176 
		7.875,78.73 10.316,78.73 10.316,77.506 	"/>
	<line fill="none" stroke="#D2272D" stroke-width="0.5" stroke-miterlimit="10" x1="7.875" y1="77.507" x2="7.87" y2="77.507"/>
	<polyline fill="none" stroke="#D2272D" stroke-width="0.5" stroke-miterlimit="10" points="18.884,73.837 18.884,75.06 
		18.879,75.06 18.879,78.73 20.102,78.73 20.102,75.06 22.553,75.06 22.553,73.837 	"/>
	<polyline fill="none" stroke="#D2272D" stroke-width="0.5" stroke-miterlimit="10" points="15.219,67.721 15.219,78.73 
		16.442,78.73 16.442,73.836 18.879,73.836 18.879,72.614 	"/>
	<polyline fill="none" stroke="#D2272D" stroke-width="0.5" stroke-miterlimit="10" points="11.542,78.73 10.318,78.73 
		10.318,79.953 11.542,79.953 11.542,81.176 12.766,81.176 12.766,67.721 	"/>
	<line fill="none" stroke="#D2272D" stroke-width="0.5" stroke-miterlimit="10" x1="26.223" y1="86.07" x2="26.223" y2="77.506"/>
	<polygon fill="none" stroke="#D2272D" stroke-width="0.5" stroke-miterlimit="10" points="6.651,77.507 6.651,81.176 7.869,81.176 
		7.869,82.4 9.092,82.4 9.092,84.846 10.318,84.846 10.318,87.292 11.541,87.292 11.541,89.739 12.771,89.739 12.771,93.409 
		24.997,93.409 24.997,89.739 26.223,89.739 26.223,86.07 27.446,86.07 27.446,77.507 26.223,77.507 26.223,76.283 25,76.283 
		25,75.06 22.553,75.06 22.553,73.836 18.879,73.836 18.879,72.614 16.442,72.614 16.442,67.721 15.219,67.721 15.219,66.498 
		12.771,66.498 12.771,67.721 11.543,67.721 11.543,78.73 10.318,78.73 10.318,77.507 	"/>
</g>
<g>
	<path fill="none" stroke="#D2272D" stroke-width="0.5" stroke-miterlimit="10" d="M167.435,66.498h-10.717l-12.861,8.788
		 M154.359,100.793l13.075-10.718V66.498h-0.494 M143.856,75.286v25.508h10.503"/>
	
		<line fill="none" stroke="#D2272D" stroke-width="0.5" stroke-miterlimit="10" x1="154.547" y1="74.857" x2="166.257" y2="66.498"/>
	
		<line fill="none" stroke="#D2272D" stroke-width="0.5" stroke-miterlimit="10" x1="144.484" y1="74.857" x2="154.547" y2="74.857"/>
	
		<line fill="none" stroke="#D2272D" stroke-width="0.5" stroke-miterlimit="10" x1="154.779" y1="75.266" x2="154.779" y2="100.45"/>
	
		<line fill="none" stroke="#D2272D" stroke-width="0.5" stroke-miterlimit="10" x1="166.931" y1="66.584" x2="154.779" y2="75.266"/>
	<path fill="none" stroke="#D2272D" stroke-width="0.5" stroke-miterlimit="10" d="M165.946,69.757
		c0.051,0.013,0.08,0.057,0.08,0.134c0,0.153-0.128,0.368-0.281,0.482c-0.152,0.114-0.28,0.087-0.28-0.066
		c0-0.154,0.128-0.369,0.28-0.482C165.823,69.767,165.896,69.745,165.946,69.757z"/>
	<path fill="none" stroke="#D2272D" stroke-width="0.5" stroke-miterlimit="10" d="M165.116,70.374
		c0.05,0.013,0.08,0.057,0.08,0.134c0,0.154-0.128,0.369-0.282,0.483c-0.151,0.113-0.28,0.086-0.28-0.067
		c0-0.154,0.129-0.369,0.28-0.482C164.992,70.383,165.065,70.361,165.116,70.374z"/>
	<path fill="none" stroke="#D2272D" stroke-width="0.5" stroke-miterlimit="10" d="M165.946,70.588
		c0.051,0.013,0.08,0.057,0.08,0.134c0,0.153-0.128,0.382-0.281,0.496c-0.152,0.113-0.28,0.072-0.28-0.081s0.128-0.368,0.28-0.482
		C165.823,70.598,165.896,70.575,165.946,70.588z"/>
	<path fill="none" stroke="#D2272D" stroke-width="0.5" stroke-miterlimit="10" d="M164.272,70.99
		c0.049,0.014,0.08,0.058,0.08,0.135c0,0.152-0.115,0.382-0.269,0.495s-0.281,0.073-0.281-0.08s0.128-0.369,0.281-0.482
		C164.162,71,164.222,70.976,164.272,70.99z"/>
	<path fill="none" stroke="#D2272D" stroke-width="0.5" stroke-miterlimit="10" d="M165.116,71.205c0.05,0.013,0.08,0.07,0.08,0.147
		c0,0.152-0.128,0.368-0.282,0.482c-0.151,0.113-0.28,0.073-0.28-0.081c0-0.152,0.129-0.369,0.28-0.482
		C164.992,71.214,165.065,71.192,165.116,71.205z"/>
	<path fill="none" stroke="#D2272D" stroke-width="0.5" stroke-miterlimit="10" d="M165.92,71.418
		c0.062,0.007,0.106,0.062,0.106,0.147c0,0.153-0.127,0.369-0.28,0.482c-0.154,0.113-0.282,0.073-0.282-0.08
		s0.128-0.369,0.282-0.483c0.038-0.028,0.073-0.043,0.106-0.053C165.878,71.424,165.899,71.416,165.92,71.418z"/>
	<path fill="none" stroke="#D2272D" stroke-width="0.5" stroke-miterlimit="10" d="M163.441,71.606
		c0.05,0.014,0.081,0.058,0.081,0.135c0,0.152-0.129,0.382-0.282,0.496c-0.153,0.112-0.268,0.071-0.268-0.081
		c0-0.153,0.115-0.369,0.268-0.483C163.317,71.617,163.392,71.593,163.441,71.606z"/>
	<path fill="none" stroke="#D2272D" stroke-width="0.5" stroke-miterlimit="10" d="M164.272,71.821
		c0.049,0.013,0.08,0.07,0.08,0.147c0,0.153-0.115,0.368-0.269,0.481c-0.153,0.114-0.281,0.074-0.281-0.08
		c0-0.152,0.128-0.368,0.281-0.481C164.162,71.831,164.222,71.808,164.272,71.821z"/>
	<path fill="none" stroke="#D2272D" stroke-width="0.5" stroke-miterlimit="10" d="M165.089,72.035
		c0.062,0.006,0.107,0.062,0.107,0.147c0,0.153-0.129,0.369-0.281,0.482c-0.153,0.113-0.281,0.087-0.281-0.067
		c0-0.153,0.128-0.382,0.281-0.495c0.039-0.029,0.072-0.044,0.107-0.054C165.048,72.041,165.067,72.033,165.089,72.035z"/>
	<path fill="none" stroke="#D2272D" stroke-width="0.5" stroke-miterlimit="10" d="M162.61,72.222
		c0.051,0.013,0.08,0.071,0.08,0.147c0,0.154-0.127,0.369-0.281,0.482c-0.152,0.113-0.28,0.073-0.28-0.08s0.128-0.369,0.28-0.483
		C162.487,72.233,162.56,72.209,162.61,72.222z"/>
	<path fill="none" stroke="#D2272D" stroke-width="0.5" stroke-miterlimit="10" d="M165.92,72.249
		c0.062,0.007,0.106,0.062,0.106,0.147c0,0.154-0.127,0.369-0.28,0.483c-0.154,0.112-0.282,0.086-0.282-0.067
		c0-0.154,0.128-0.368,0.282-0.482c0.038-0.028,0.073-0.057,0.106-0.067C165.878,72.255,165.899,72.248,165.92,72.249z"/>
	<path fill="none" stroke="#D2272D" stroke-width="0.5" stroke-miterlimit="10" d="M163.428,72.436
		c0.06,0.007,0.094,0.062,0.094,0.148c0,0.152-0.128,0.368-0.28,0.481c-0.154,0.114-0.269,0.074-0.269-0.08s0.115-0.368,0.269-0.481
		c0.039-0.029,0.086-0.043,0.119-0.055C163.386,72.442,163.407,72.435,163.428,72.436z"/>
	<path fill="none" stroke="#D2272D" stroke-width="0.5" stroke-miterlimit="10" d="M164.259,72.651
		c0.06,0.007,0.094,0.061,0.094,0.147c0,0.153-0.115,0.368-0.268,0.482c-0.154,0.114-0.281,0.086-0.281-0.066
		c0-0.153,0.127-0.383,0.281-0.496c0.039-0.028,0.072-0.043,0.106-0.054C164.216,72.657,164.238,72.649,164.259,72.651z"/>
	<path fill="none" stroke="#D2272D" stroke-width="0.5" stroke-miterlimit="10" d="M161.78,72.838
		c0.049,0.014,0.08,0.071,0.08,0.147c0,0.154-0.128,0.368-0.281,0.482s-0.281,0.073-0.281-0.081c0-0.152,0.128-0.368,0.281-0.481
		C161.655,72.848,161.729,72.826,161.78,72.838z"/>
	<path fill="none" stroke="#D2272D" stroke-width="0.5" stroke-miterlimit="10" d="M165.089,72.865
		c0.062,0.008,0.107,0.062,0.107,0.148c0,0.153-0.129,0.368-0.281,0.482c-0.153,0.113-0.281,0.086-0.281-0.067
		s0.128-0.369,0.281-0.483c0.039-0.027,0.072-0.056,0.107-0.065C165.048,72.872,165.067,72.863,165.089,72.865z"/>
	<path fill="none" stroke="#D2272D" stroke-width="0.5" stroke-miterlimit="10" d="M162.583,73.053
		c0.063,0.006,0.107,0.061,0.107,0.147c0,0.152-0.127,0.368-0.281,0.482c-0.152,0.113-0.281,0.086-0.281-0.068
		c0-0.152,0.129-0.381,0.281-0.494c0.039-0.028,0.073-0.043,0.108-0.055C162.542,73.058,162.563,73.051,162.583,73.053z"/>
	<path fill="none" stroke="#D2272D" stroke-width="0.5" stroke-miterlimit="10" d="M165.92,73.08
		c0.062,0.006,0.106,0.062,0.106,0.148c0,0.152-0.127,0.367-0.28,0.481c-0.154,0.114-0.282,0.086-0.282-0.067
		s0.128-0.368,0.282-0.482c0.038-0.028,0.073-0.057,0.106-0.066C165.878,73.085,165.899,73.079,165.92,73.08z"/>
	<path fill="none" stroke="#D2272D" stroke-width="0.5" stroke-miterlimit="10" d="M163.428,73.268
		c0.06,0.006,0.094,0.062,0.094,0.146c0,0.153-0.128,0.369-0.28,0.482c-0.154,0.113-0.269,0.087-0.269-0.067
		c0-0.153,0.115-0.368,0.269-0.482c0.039-0.027,0.086-0.056,0.119-0.066C163.386,73.273,163.407,73.265,163.428,73.268z"/>
	<path fill="none" stroke="#D2272D" stroke-width="0.5" stroke-miterlimit="10" d="M164.259,73.481
		c0.06,0.007,0.094,0.062,0.094,0.148c0,0.153-0.115,0.368-0.268,0.482c-0.154,0.113-0.281,0.086-0.281-0.067
		c0-0.154,0.127-0.369,0.281-0.482c0.039-0.028,0.072-0.057,0.106-0.066C164.216,73.488,164.238,73.479,164.259,73.481z"/>
	<path fill="none" stroke="#D2272D" stroke-width="0.5" stroke-miterlimit="10" d="M161.752,73.668
		c0.062,0.007,0.107,0.062,0.107,0.148c0,0.153-0.128,0.368-0.281,0.482c-0.154,0.113-0.281,0.086-0.281-0.067
		s0.127-0.382,0.281-0.496c0.038-0.028,0.074-0.043,0.107-0.053C161.711,73.675,161.732,73.667,161.752,73.668z"/>
	<path fill="none" stroke="#D2272D" stroke-width="0.5" stroke-miterlimit="10" d="M165.116,73.709
		c0.05,0.013,0.08,0.058,0.08,0.134c0,0.154-0.128,0.368-0.282,0.482c-0.151,0.114-0.28,0.087-0.28-0.067
		c0-0.152,0.129-0.368,0.28-0.481C164.992,73.719,165.065,73.697,165.116,73.709z"/>
	<path fill="none" stroke="#D2272D" stroke-width="0.5" stroke-miterlimit="10" d="M162.583,73.883
		c0.063,0.006,0.107,0.062,0.107,0.148c0,0.152-0.127,0.367-0.281,0.481c-0.152,0.114-0.281,0.087-0.281-0.066
		s0.129-0.369,0.281-0.482c0.039-0.029,0.073-0.057,0.108-0.067C162.542,73.889,162.563,73.882,162.583,73.883z"/>
	<path fill="none" stroke="#D2272D" stroke-width="0.5" stroke-miterlimit="10" d="M163.428,74.098
		c0.06,0.006,0.094,0.061,0.094,0.146c0,0.154-0.128,0.369-0.28,0.483c-0.154,0.113-0.269,0.086-0.269-0.068
		c0-0.152,0.115-0.367,0.269-0.481c0.039-0.028,0.086-0.057,0.119-0.067C163.386,74.103,163.407,74.096,163.428,74.098z"/>
	<path fill="none" stroke="#D2272D" stroke-width="0.5" stroke-miterlimit="10" d="M164.272,74.326
		c0.049,0.013,0.08,0.057,0.08,0.134c0,0.153-0.115,0.369-0.269,0.482s-0.281,0.087-0.281-0.067c0-0.152,0.128-0.368,0.281-0.481
		C164.162,74.335,164.222,74.313,164.272,74.326z"/>
	<path fill="none" stroke="#D2272D" stroke-width="0.5" stroke-miterlimit="10" d="M161.752,74.5
		c0.062,0.006,0.107,0.062,0.107,0.146c0,0.154-0.128,0.369-0.281,0.483c-0.154,0.113-0.281,0.086-0.281-0.068
		c0-0.153,0.127-0.368,0.281-0.481c0.038-0.029,0.074-0.057,0.107-0.067C161.711,74.505,161.732,74.498,161.752,74.5z"/>
	<path fill="none" stroke="#D2272D" stroke-width="0.5" stroke-miterlimit="10" d="M162.61,74.728
		c0.051,0.013,0.08,0.057,0.08,0.133c0,0.154-0.127,0.369-0.281,0.483c-0.152,0.112-0.28,0.087-0.28-0.068
		c0-0.152,0.128-0.368,0.28-0.481C162.487,74.738,162.56,74.714,162.61,74.728z"/>
	<path fill="none" stroke="#D2272D" stroke-width="0.5" stroke-miterlimit="10" d="M163.441,74.942
		c0.05,0.013,0.081,0.057,0.081,0.134c0,0.154-0.129,0.383-0.282,0.495c-0.153,0.114-0.268,0.074-0.268-0.08
		c0-0.152,0.115-0.368,0.268-0.481C163.317,74.952,163.392,74.929,163.441,74.942z"/>
	<path fill="none" stroke="#D2272D" stroke-width="0.5" stroke-miterlimit="10" d="M161.78,75.344
		c0.049,0.013,0.08,0.057,0.08,0.134c0,0.153-0.128,0.368-0.281,0.482c-0.153,0.112-0.281,0.086-0.281-0.067
		s0.128-0.368,0.281-0.481C161.655,75.354,161.729,75.332,161.78,75.344z"/>
	<path fill="none" stroke="#D2272D" stroke-width="0.5" stroke-miterlimit="10" d="M162.61,75.558c0.051,0.013,0.08,0.07,0.08,0.148
		c0,0.152-0.127,0.367-0.281,0.481c-0.152,0.114-0.28,0.073-0.28-0.081c0-0.152,0.128-0.368,0.28-0.481
		C162.487,75.568,162.56,75.545,162.61,75.558z"/>
	<path fill="none" stroke="#D2272D" stroke-width="0.5" stroke-miterlimit="10" d="M161.78,76.174
		c0.049,0.013,0.08,0.071,0.08,0.147c0,0.153-0.128,0.368-0.281,0.482s-0.281,0.073-0.281-0.081c0-0.152,0.128-0.368,0.281-0.481
		C161.655,76.184,161.729,76.162,161.78,76.174z"/>
	
		<line fill="none" stroke="#D2272D" stroke-width="0.5" stroke-miterlimit="10" x1="154.359" y1="75.289" x2="143.856" y2="75.289"/>
	
		<line fill="none" stroke="#D2272D" stroke-width="0.5" stroke-miterlimit="10" x1="154.359" y1="100.795" x2="154.359" y2="75.289"/>
	
		<rect x="145.25" y="76.91" fill="none" stroke="#D2272D" stroke-width="0.5" stroke-miterlimit="10" width="7.717" height="1.286"/>
	
		<rect x="145.25" y="78.625" fill="none" stroke="#D2272D" stroke-width="0.5" stroke-miterlimit="10" width="7.717" height="1.286"/>
	
		<rect x="145.25" y="80.339" fill="none" stroke="#D2272D" stroke-width="0.5" stroke-miterlimit="10" width="7.717" height="1.285"/>
	
		<rect x="145.25" y="82.054" fill="none" stroke="#D2272D" stroke-width="0.5" stroke-miterlimit="10" width="7.717" height="1.286"/>
	<path fill="none" stroke="#D2272D" stroke-width="0.5" stroke-miterlimit="10" d="M151.895,83.769
		c0.034-0.003,0.067,0.006,0.094,0.026c0.005,0.005,0.009,0.009,0.013,0.014c0.005,0.004,0.009,0.008,0.014,0.014
		c0.02,0.027,0.03,0.061,0.027,0.094v0.804c0,0.028-0.01,0.057-0.027,0.08c-0.005,0.006-0.009,0.009-0.014,0.013
		c-0.012,0.012-0.025,0.021-0.04,0.028c-0.044,0.02-0.095,0.014-0.134-0.015c-0.005-0.003-0.009-0.008-0.013-0.014
		c-0.005-0.004-0.009-0.007-0.014-0.013c-0.017-0.023-0.027-0.052-0.027-0.08v-0.804c0-0.029,0.01-0.058,0.027-0.08
		c0.005-0.006,0.009-0.01,0.014-0.014c0.004-0.006,0.008-0.01,0.013-0.014c0.016-0.013,0.034-0.022,0.053-0.027
		C151.885,83.777,151.89,83.773,151.895,83.769z"/>
	<path fill="none" stroke="#D2272D" stroke-width="0.5" stroke-miterlimit="10" d="M151.546,84.144
		c0.078-0.015,0.153,0.036,0.168,0.114c0.015,0.077-0.036,0.152-0.114,0.167c-0.043,0.031-0.089,0.078-0.12,0.121
		c-0.177,0.239-0.121,0.573,0.12,0.75c0.24,0.177,0.573,0.12,0.751-0.121c0.176-0.24,0.119-0.573-0.121-0.75
		c-0.005-0.004-0.01-0.008-0.014-0.014c-0.011-0.012-0.02-0.024-0.026-0.04c-0.015-0.034-0.015-0.072,0-0.106
		c0.006-0.015,0.015-0.029,0.026-0.041c0.004-0.005,0.009-0.009,0.014-0.013c0.019-0.016,0.043-0.024,0.066-0.027
		c0.034-0.003,0.067,0.007,0.094,0.027c0.358,0.263,0.437,0.768,0.174,1.125c-0.262,0.356-0.768,0.437-1.124,0.174
		c-0.358-0.263-0.437-0.769-0.175-1.125c0.048-0.065,0.097-0.127,0.161-0.174c0.008-0.006,0.017-0.011,0.027-0.015
		c0.004-0.005,0.009-0.009,0.013-0.013l0.014-0.014c0.007-0.006,0.017-0.01,0.026-0.013
		C151.519,84.151,151.533,84.146,151.546,84.144z"/>
	<circle fill="none" stroke="#D2272D" stroke-width="0.5" stroke-miterlimit="10" cx="146.107" cy="84.626" r="0.428"/>
	<circle fill="none" stroke="#D2272D" stroke-width="0.5" stroke-miterlimit="10" cx="147.366" cy="84.626" r="0.428"/>
	<path fill="none" stroke="#D2272D" stroke-width="0.5" stroke-miterlimit="10" d="M144.632,94.434h0.013h0.014h0.014h0.013h0.013
		c0.009-0.001,0.018-0.001,0.027,0c0.01-0.001,0.018-0.001,0.027,0c0.013-0.001,0.026-0.001,0.04,0h8.574
		c0.119-0.002,0.215,0.093,0.217,0.211c0.002,0.119-0.093,0.216-0.211,0.217h-0.006h-8.574c-0.119,0.045-0.25-0.015-0.295-0.134
		C144.454,94.61,144.514,94.478,144.632,94.434z"/>
	<path fill="none" stroke="#D2272D" stroke-width="0.5" stroke-miterlimit="10" d="M144.632,95.291h0.013h0.014h0.014h0.013h0.013
		c0.009,0,0.018,0,0.027,0c0.01,0,0.018,0,0.027,0c0.013-0.001,0.026-0.001,0.04,0h8.574c0.119-0.001,0.215,0.094,0.217,0.212
		s-0.093,0.217-0.211,0.218h-0.006h-8.574c-0.119,0.044-0.25-0.016-0.295-0.134C144.454,95.468,144.514,95.335,144.632,95.291z"/>
	<path fill="none" stroke="#D2272D" stroke-width="0.5" stroke-miterlimit="10" d="M144.632,96.149h0.013h0.014h0.014h0.013h0.013
		c0.009-0.001,0.018-0.001,0.027,0c0.01-0.001,0.018-0.001,0.027,0c0.013-0.001,0.026-0.001,0.04,0h8.574
		c0.119-0.002,0.215,0.092,0.217,0.211c0.002,0.118-0.093,0.216-0.211,0.217h-0.006h-8.574c-0.119,0.045-0.25-0.015-0.295-0.133
		C144.454,96.325,144.514,96.193,144.632,96.149z"/>
	<path fill="none" stroke="#D2272D" stroke-width="0.5" stroke-miterlimit="10" d="M144.632,97.006h0.013h0.014h0.014h0.013h0.013
		c0.009-0.001,0.018-0.001,0.027,0c0.01-0.001,0.018-0.001,0.027,0c0.013-0.001,0.026-0.001,0.04,0h8.574
		c0.119-0.002,0.215,0.093,0.217,0.212c0.002,0.118-0.093,0.214-0.211,0.217h-0.006h-8.574c-0.119,0.044-0.25-0.016-0.295-0.135
		C144.454,97.182,144.514,97.05,144.632,97.006z"/>
	<path fill="none" stroke="#D2272D" stroke-width="0.5" stroke-miterlimit="10" d="M144.632,97.864h0.013h0.014h0.014h0.013h0.013
		c0.009-0.001,0.018-0.001,0.027,0c0.01-0.001,0.018-0.001,0.027,0c0.013-0.001,0.026-0.001,0.04,0h8.574
		c0.119-0.001,0.215,0.093,0.217,0.212c0.002,0.117-0.093,0.215-0.211,0.217h-0.006h-8.574c-0.119,0.044-0.25-0.016-0.295-0.135
		C144.454,98.04,144.514,97.909,144.632,97.864z"/>
	<path fill="none" stroke="#D2272D" stroke-width="0.5" stroke-miterlimit="10" d="M144.632,98.721h0.013h0.014h0.014h0.013h0.013
		c0.009,0,0.018,0,0.027,0c0.01,0,0.018,0,0.027,0c0.013,0,0.026,0,0.04,0h8.574c0.119-0.002,0.215,0.093,0.217,0.211
		s-0.093,0.216-0.211,0.218h-0.006h-8.574c-0.119,0.045-0.25-0.017-0.295-0.134C144.454,98.898,144.514,98.765,144.632,98.721z"/>
	<path fill="none" stroke="#D2272D" stroke-width="0.5" stroke-miterlimit="10" d="M144.632,99.579h0.013h0.014h0.014h0.013h0.013
		c0.009-0.001,0.018-0.001,0.027,0c0.01-0.001,0.018-0.001,0.027,0c0.013-0.002,0.026-0.002,0.04,0h8.574
		c0.028-0.001,0.055,0.003,0.08,0.013c0.005,0.004,0.009,0.01,0.014,0.014c0.009,0,0.018,0,0.026,0
		c0.023,0.019,0.041,0.041,0.055,0.066c0.004,0.005,0.008,0.01,0.012,0.015c0.006,0.008,0.01,0.018,0.014,0.026
		c0,0.004,0,0.009,0,0.014c0.005,0.008,0.01,0.018,0.013,0.026v0.013c0.001,0.011,0.001,0.019,0,0.027
		c0.001,0.014,0.001,0.027,0,0.04v0.014c-0.003,0.01-0.008,0.019-0.013,0.027c-0.003,0.013-0.008,0.026-0.014,0.039
		c-0.004,0.005-0.008,0.01-0.012,0.014c-0.026,0.03-0.058,0.054-0.095,0.067c-0.025,0.01-0.052,0.014-0.08,0.013h-8.574
		c-0.119,0.045-0.25-0.015-0.295-0.133C144.454,99.754,144.514,99.623,144.632,99.579z"/>
</g>
<text transform="matrix(1 0 0 1 35.9839 38.3359)" fill="#D2272D" font-family="'Rockwell'" font-size="24">1</text>
<circle fill="none" stroke="#D2272D" stroke-width="0.5" stroke-miterlimit="10" cx="42.624" cy="29.37" r="23"/>
<circle fill="none" stroke="#D2272D" stroke-width="0.5" stroke-miterlimit="10" cx="42.625" cy="29.37" r="20.667"/>
<text transform="matrix(1 0 0 1 108.9019 38.3218)" fill="#D2272D" font-family="'Rockwell'" font-size="24">2</text>
<circle fill="none" stroke="#D2272D" stroke-width="0.5" stroke-miterlimit="10" cx="115.291" cy="29.37" r="23"/>
<circle fill="none" stroke="#D2272D" stroke-width="0.5" stroke-miterlimit="10" cx="115.29" cy="29.37" r="20.667"/>
<text transform="matrix(1 0 0 1 181.0918 38.3545)" fill="#D2272D" font-family="'Rockwell'" font-size="24">3</text>
<circle fill="none" stroke="#D2272D" stroke-width="0.5" stroke-miterlimit="10" cx="187.957" cy="29.37" r="23"/>
<circle fill="none" stroke="#D2272D" stroke-width="0.5" stroke-miterlimit="10" cx="187.957" cy="29.37" r="20.667"/>
<text transform="matrix(1 0 0 1 253.9844 38.3359)" fill="#D2272D" font-family="'Rockwell'" font-size="24">5</text>
<circle fill="none" stroke="#D2272D" stroke-width="0.5" stroke-miterlimit="10" cx="260.624" cy="29.37" r="23"/>
<circle fill="none" stroke="#D2272D" stroke-width="0.5" stroke-miterlimit="10" cx="260.625" cy="29.37" r="20.667"/>
</svg>
